<svg width="199" height="61" viewBox="0 0 199 61" fill="none" xmlns="http://www.w3.org/2000/svg">
<path d="M82.6164 4.03859V36.7664C82.6164 37.8095 82.202 38.8099 81.4644 39.5475C80.7268 40.2851 79.7264 40.6995 78.6833 40.6995C77.6401 40.6995 76.6397 40.2851 75.9021 39.5475C75.1645 38.8099 74.7501 37.8095 74.7501 36.7664V10.8836L62.9438 17.6596V29.2796C62.9438 30.3228 62.5295 31.3232 61.7918 32.0608C61.0542 32.7984 60.0538 33.2128 59.0107 33.2128C57.9676 33.2128 56.9672 32.7984 56.2296 32.0608C55.492 31.3232 55.0776 30.3228 55.0776 29.2796V15.3895C55.0778 14.6988 55.2597 14.0203 55.6048 13.422C55.95 12.8237 56.4463 12.3267 57.0441 11.9808L76.7167 0.629876C77.3148 0.284564 77.9933 0.102825 78.6839 0.102936C79.3745 0.103046 80.0529 0.285003 80.6509 0.630506C81.2489 0.976009 81.7454 1.47288 82.0904 2.07114C82.4354 2.6694 82.6168 3.34797 82.6164 4.03859Z" fill="white"/>
<path d="M125.895 29.2796V10.8836L114.088 17.6941V36.7664C114.088 37.8095 113.674 38.8099 112.936 39.5475C112.199 40.2851 111.198 40.6995 110.155 40.6995C109.112 40.6995 108.112 40.2851 107.374 39.5475C106.636 38.8099 106.222 37.8095 106.222 36.7664V15.3757C106.222 14.685 106.404 14.0065 106.749 13.4082C107.094 12.8099 107.591 12.3129 108.189 11.967L127.861 0.629876C128.459 0.284564 129.138 0.102825 129.828 0.102936C130.519 0.103046 131.197 0.285003 131.795 0.630506C132.393 0.976009 132.89 1.47288 133.235 2.07114C133.58 2.6694 133.761 3.34797 133.761 4.03859V29.2796C133.761 30.3228 133.347 31.3232 132.609 32.0608C131.871 32.7984 130.871 33.2128 129.828 33.2128C128.785 33.2128 127.784 32.7984 127.047 32.0608C126.309 31.3232 125.895 30.3228 125.895 29.2796Z" fill="white"/>
<path d="M98.349 36.7664C98.349 37.8095 97.9346 38.8099 97.197 39.5475C96.4594 40.2851 95.459 40.6995 94.4158 40.6995C93.3727 40.6995 92.3723 40.2851 91.6347 39.5475C90.8971 38.8099 90.4827 37.8095 90.4827 36.7664V4.0386C90.4827 2.99547 90.8971 1.99506 91.6347 1.25746C92.3723 0.519851 93.3727 0.105469 94.4158 0.105469C95.459 0.105469 96.4594 0.519851 97.197 1.25746C97.9346 1.99506 98.349 2.99547 98.349 4.0386V36.7664Z" fill="white"/>
<path d="M43.2782 40.6995C42.7608 40.7004 42.2483 40.5994 41.7699 40.4022C41.2915 40.2051 40.8567 39.9156 40.4902 39.5504C40.1237 39.1851 39.8327 38.7513 39.6339 38.2736C39.435 37.7959 39.3322 37.2838 39.3313 36.7664V10.8836L27.5319 17.6941V29.2796C27.5319 29.7961 27.4302 30.3076 27.2325 30.7848C27.0349 31.262 26.7451 31.6955 26.3799 32.0608C26.0147 32.426 25.5811 32.7157 25.1039 32.9134C24.6267 33.111 24.1153 33.2128 23.5988 33.2128C23.0823 33.2128 22.5708 33.111 22.0936 32.9134C21.6164 32.7157 21.1829 32.426 20.8176 32.0608C20.4524 31.6955 20.1627 31.262 19.965 30.7848C19.7674 30.3076 19.6657 29.7961 19.6657 29.2796V17.6596L7.86626 10.8836V36.1867C7.86626 37.2299 7.45188 38.2303 6.71427 38.9679C5.97667 39.7055 4.97626 40.1199 3.93313 40.1199C2.89 40.1199 1.88959 39.7055 1.15199 38.9679C0.414383 38.2303 8.0922e-07 37.2299 8.0922e-07 36.1867V4.03859C-0.000442143 3.34797 0.180971 2.6694 0.525994 2.07114C0.871018 1.47288 1.36749 0.976009 1.96547 0.630506C2.56346 0.285003 3.24188 0.103046 3.9325 0.102936C4.62312 0.102825 5.3016 0.284564 5.8997 0.629876L23.6057 10.8836L41.3117 0.629876C41.9098 0.284564 42.5882 0.102825 43.2789 0.102936C43.9695 0.103046 44.6479 0.285003 45.2459 0.630506C45.8439 0.976009 46.3403 1.47288 46.6854 2.07114C47.0304 2.6694 47.2118 3.34797 47.2114 4.03859V36.7664C47.2114 37.8095 46.797 38.8099 46.0594 39.5475C45.3218 40.2851 44.3214 40.6995 43.2782 40.6995Z" fill="white"/>
<path d="M150.673 10.442C150.055 10.282 149.469 10.0159 148.942 9.6554L149.735 8.01315C150.192 8.32134 150.695 8.5543 151.226 8.70317C151.783 8.8804 152.365 8.97115 152.951 8.97228C153.44 9.00546 153.93 8.91033 154.372 8.69627C154.508 8.62851 154.623 8.52424 154.703 8.39509C154.784 8.26594 154.827 8.11698 154.827 7.96484C154.826 7.86237 154.802 7.76151 154.756 7.66961C154.711 7.5777 154.646 7.49706 154.565 7.43353C154.359 7.27494 154.125 7.15566 153.875 7.08161C153.592 6.99191 153.185 6.88841 152.73 6.78491C152.112 6.64681 151.501 6.47637 150.901 6.27429C150.436 6.10364 150.019 5.82175 149.687 5.45316C149.33 5.03588 149.147 4.49728 149.176 3.94891C149.17 3.41588 149.332 2.89444 149.638 2.45846C149.988 1.98185 150.467 1.61546 151.018 1.40273C151.741 1.12798 152.509 0.996727 153.282 1.01631C153.898 1.0143 154.512 1.08612 155.11 1.23022C155.658 1.35744 156.184 1.56682 156.67 1.85124L155.98 3.5004C155.155 3.02986 154.224 2.77586 153.275 2.76207C152.796 2.73153 152.319 2.83423 151.895 3.05878C151.759 3.13829 151.645 3.2521 151.567 3.38889C151.488 3.52569 151.446 3.6807 151.446 3.83851C151.452 3.99357 151.505 4.14311 151.599 4.26665C151.693 4.39018 151.823 4.48165 151.971 4.52853C152.485 4.73666 153.019 4.89157 153.565 4.99085C154.18 5.12975 154.788 5.30018 155.386 5.50146C155.852 5.66938 156.271 5.94618 156.608 6.30879C156.96 6.72535 157.141 7.26103 157.111 7.80614C157.116 8.3326 156.955 8.84714 156.649 9.27589C156.297 9.74983 155.819 10.1156 155.269 10.3316C154.545 10.6095 153.774 10.7409 152.999 10.718C152.215 10.7367 151.432 10.6437 150.673 10.442Z" fill="white"/>
<path d="M160.085 10.1936C159.483 9.89823 158.975 9.44211 158.616 8.87567C158.261 8.2969 158.079 7.62905 158.091 6.95051C158.079 6.27197 158.261 5.60412 158.616 5.02535C158.978 4.46352 159.486 4.01044 160.085 3.7143C160.746 3.38962 161.474 3.22644 162.211 3.23819C162.945 3.22568 163.671 3.38893 164.329 3.7143C164.925 4.01836 165.43 4.47561 165.792 5.03915C166.146 5.61792 166.328 6.28577 166.316 6.96431C166.328 7.64285 166.146 8.3107 165.792 8.88947C165.43 9.44759 164.925 9.89806 164.329 10.1936C163.673 10.5245 162.945 10.6903 162.211 10.6766C161.474 10.6895 160.744 10.5237 160.085 10.1936ZM163.584 8.40646C163.765 8.2113 163.905 7.98201 163.996 7.73201C164.087 7.48201 164.128 7.21633 164.115 6.95051C164.128 6.68469 164.087 6.419 163.996 6.16901C163.905 5.91901 163.765 5.68972 163.584 5.49456C163.404 5.31265 163.189 5.1702 162.951 5.07633C162.714 4.98246 162.459 4.93925 162.204 4.94944C161.949 4.94092 161.694 4.98491 161.457 5.07869C161.22 5.17246 161.004 5.31401 160.824 5.49456C160.639 5.68792 160.496 5.91659 160.402 6.16681C160.309 6.41702 160.266 6.6836 160.278 6.95051C160.266 7.21741 160.309 7.484 160.402 7.73421C160.496 7.98443 160.639 8.2131 160.824 8.40646C161.004 8.58701 161.22 8.72856 161.457 8.82233C161.694 8.9161 161.949 8.96009 162.204 8.95157C162.458 8.96356 162.712 8.92252 162.95 8.83105C163.187 8.73958 163.403 8.59969 163.584 8.42026V8.40646Z" fill="white"/>
<path d="M171.126 3.5073C171.611 3.31883 172.13 3.2274 172.651 3.23819V5.17715C172.409 5.17715 172.243 5.17715 172.161 5.17715C171.626 5.14523 171.1 5.32632 170.698 5.68087C170.51 5.88258 170.366 6.12092 170.274 6.38096C170.183 6.641 170.146 6.91712 170.166 7.19202V10.6076H167.993V3.34859H170.063V4.30082C170.338 3.94415 170.706 3.66969 171.126 3.5073Z" fill="white"/>
<path d="M177.26 3.5073C177.746 3.31883 178.264 3.2274 178.785 3.23819V5.17715C178.544 5.17715 178.378 5.17715 178.295 5.17715C177.76 5.14523 177.234 5.32632 176.832 5.68087C176.644 5.88258 176.5 6.12092 176.409 6.38096C176.317 6.641 176.281 6.91712 176.301 7.19202V10.6076H174.127V3.34859H176.197V4.30082C176.472 3.94415 176.84 3.66969 177.26 3.5073Z" fill="white"/>
<path d="M180.4 2.00304C180.278 1.90104 180.181 1.77311 180.115 1.62862C180.049 1.48414 180.017 1.32679 180.02 1.16811C180.017 1.00951 180.05 0.852309 180.116 0.707903C180.181 0.563497 180.278 0.435499 180.4 0.333183C180.669 0.10163 181.018 -0.0170091 181.372 0.00197154C181.725 -0.015372 182.071 0.0976205 182.345 0.319382C182.464 0.417781 182.56 0.541143 182.625 0.680686C182.691 0.820228 182.725 0.972517 182.725 1.12671C182.728 1.29046 182.696 1.453 182.631 1.60311C182.565 1.75322 182.468 1.88732 182.345 1.99614C182.069 2.21672 181.726 2.33686 181.372 2.33686C181.019 2.33686 180.676 2.21672 180.4 1.99614V2.00304ZM180.282 3.38308H182.456V10.58H180.282V3.38308Z" fill="white"/>
<path d="M187.81 3.50731C188.296 3.32003 188.814 3.22865 189.335 3.2382V5.17716C189.094 5.17716 188.935 5.17716 188.852 5.17716C188.587 5.1606 188.322 5.19657 188.071 5.28302C187.819 5.36946 187.588 5.50467 187.389 5.68088C187.202 5.88258 187.057 6.12093 186.966 6.38097C186.875 6.64101 186.838 6.91713 186.858 7.19203V10.6076H184.685V3.3486H186.755V4.30083C187.027 3.9444 187.392 3.66986 187.81 3.50731Z" fill="white"/>
<path d="M155.51 18.9638C156.05 19.2562 156.497 19.6936 156.801 20.2266C157.118 20.7879 157.28 21.424 157.27 22.0689C157.28 22.716 157.118 23.354 156.801 23.9182C156.497 24.4511 156.05 24.8885 155.51 25.1809C154.946 25.4833 154.315 25.6377 153.675 25.6294C153.067 25.638 152.468 25.4882 151.936 25.1947C151.426 24.9168 151.005 24.5006 150.722 23.9941V28.2032H150.032V18.5567H150.722V20.2128C151 19.6856 151.424 19.2496 151.943 18.9569C152.478 18.6506 153.086 18.4933 153.703 18.5015C154.335 18.496 154.958 18.6554 155.51 18.9638ZM155.138 24.6841C155.577 24.4367 155.939 24.074 156.187 23.6353C156.44 23.1645 156.573 22.6381 156.573 22.1034C156.573 21.5687 156.44 21.0423 156.187 20.5716C155.939 20.1328 155.577 19.7701 155.138 19.5227C154.679 19.2654 154.16 19.1344 153.634 19.1432C153.109 19.1333 152.592 19.2644 152.136 19.5227C151.711 19.7665 151.359 20.1189 151.115 20.544C150.866 21.0162 150.736 21.542 150.736 22.0758C150.736 22.6097 150.866 23.1354 151.115 23.6077C151.351 24.053 151.704 24.4252 152.136 24.6841C152.594 24.937 153.11 25.0654 153.634 25.0567C154.159 25.0647 154.677 24.9363 155.138 24.6841Z" fill="white"/>
<path d="M164.129 19.1639C164.376 19.4219 164.565 19.7294 164.684 20.0661C164.803 20.4028 164.849 20.7609 164.819 21.1167V25.5673H164.129V24.3253C163.893 24.7405 163.537 25.0748 163.108 25.2844C162.609 25.5263 162.06 25.6446 161.507 25.6294C160.826 25.6659 160.152 25.4714 159.595 25.0774C159.381 24.9067 159.206 24.6907 159.085 24.4449C158.963 24.199 158.898 23.9294 158.892 23.6552C158.887 23.381 158.942 23.109 159.054 22.8587C159.166 22.6083 159.332 22.3858 159.54 22.2069C160.146 21.7894 160.878 21.5966 161.61 21.6618H164.108V21.096C164.127 20.8227 164.087 20.5485 163.992 20.2916C163.897 20.0347 163.748 19.8009 163.556 19.6055C163.105 19.237 162.53 19.0544 161.948 19.0949C161.478 19.0951 161.011 19.1768 160.568 19.3364C160.158 19.4836 159.777 19.7033 159.444 19.9851L159.099 19.502C159.484 19.1733 159.929 18.9225 160.41 18.7637C160.925 18.5891 161.466 18.5005 162.01 18.5015C162.776 18.4348 163.538 18.6728 164.129 19.1639ZM163.204 24.6841C163.638 24.4018 163.973 23.992 164.163 23.5111V22.1862H161.679C161.134 22.1408 160.589 22.274 160.127 22.5657C159.971 22.6878 159.846 22.8454 159.763 23.0255C159.68 23.2055 159.642 23.4028 159.651 23.6008C159.643 23.8104 159.687 24.0186 159.779 24.2073C159.87 24.3961 160.006 24.5598 160.175 24.6841C160.617 24.9717 161.139 25.1096 161.665 25.0774C162.206 25.0999 162.741 24.9632 163.204 24.6841Z" fill="white"/>
<path d="M169.649 18.9155C170.177 18.6255 170.772 18.4825 171.374 18.5015V19.1915H171.209C170.863 19.1623 170.516 19.2063 170.189 19.3204C169.862 19.4345 169.563 19.6163 169.311 19.8539C168.817 20.4262 168.569 21.1701 168.621 21.924V25.5811H167.931V18.5567H168.621V20.0885C168.827 19.5959 169.188 19.184 169.649 18.9155Z" fill="white"/>
<path d="M178.026 19.1639C178.272 19.4226 178.46 19.7303 178.579 20.0667C178.698 20.4032 178.745 20.761 178.716 21.1167V25.5673H178.026V24.3253C177.79 24.7405 177.434 25.0747 177.005 25.2844C176.506 25.5262 175.957 25.6446 175.404 25.6294C174.723 25.6658 174.049 25.4713 173.492 25.0774C173.278 24.9067 173.103 24.6907 172.982 24.4448C172.86 24.199 172.795 23.9293 172.789 23.6551C172.784 23.3809 172.839 23.109 172.951 22.8586C173.063 22.6083 173.229 22.3857 173.437 22.2069C174.043 21.7894 174.775 21.5966 175.507 21.6618H178.005V21.096C178.024 20.8226 177.984 20.5485 177.889 20.2916C177.794 20.0347 177.645 19.8009 177.453 19.6055C177.002 19.237 176.427 19.0544 175.845 19.0949C175.375 19.095 174.908 19.1768 174.465 19.3364C174.055 19.4835 173.674 19.7032 173.341 19.985L172.996 19.502C173.382 19.1747 173.827 18.9241 174.307 18.7637C174.836 18.5743 175.394 18.4764 175.956 18.4739C176.709 18.4305 177.45 18.6774 178.026 19.1639ZM177.094 24.6841C177.529 24.4036 177.865 23.9931 178.053 23.511V22.1862H175.569C175.024 22.1408 174.479 22.274 174.017 22.5657C173.861 22.6877 173.736 22.8454 173.653 23.0254C173.57 23.2055 173.532 23.4028 173.541 23.6007C173.533 23.8103 173.577 24.0185 173.669 24.2073C173.76 24.3961 173.896 24.5597 174.065 24.6841C174.507 24.9708 175.03 25.1086 175.556 25.0774C176.098 25.1013 176.636 24.9644 177.101 24.6841H177.094Z" fill="white"/>
<path d="M155.255 34.027C155.58 34.3352 155.832 34.7118 155.993 35.1295C156.154 35.5473 156.22 35.9956 156.187 36.4421V40.5822H154.117V39.6852C153.861 40.0425 153.514 40.3245 153.113 40.5017C152.711 40.6789 152.269 40.7449 151.833 40.6926C151.322 40.7036 150.814 40.6072 150.342 40.4097C149.95 40.2484 149.612 39.9777 149.369 39.63C149.147 39.2899 149.034 38.8904 149.045 38.4846C149.035 38.1756 149.101 37.869 149.238 37.592C149.376 37.315 149.58 37.0764 149.832 36.8975C150.563 36.4613 151.411 36.2614 152.26 36.3248H153.986C153.998 36.128 153.966 35.9308 153.892 35.748C153.818 35.5653 153.704 35.4015 153.558 35.2691C153.183 34.9946 152.723 34.8625 152.26 34.8965C151.86 34.8976 151.463 34.958 151.081 35.0759C150.728 35.185 150.397 35.353 150.101 35.5727L149.321 34.1029C149.771 33.8078 150.268 33.5908 150.791 33.4612C151.365 33.3092 151.956 33.2327 152.55 33.2335C153.518 33.1612 154.48 33.4432 155.255 34.027ZM153.399 39.0159C153.684 38.8529 153.902 38.5936 154.013 38.2845V37.5461H152.495C151.605 37.5461 151.163 37.8291 151.163 38.3949C151.159 38.5196 151.186 38.6433 151.243 38.7545C151.3 38.8656 151.384 38.9603 151.488 39.0297C151.755 39.2004 152.068 39.2825 152.385 39.2643C152.737 39.2753 153.085 39.1893 153.392 39.0159H153.399Z" fill="white"/>
<path d="M172.03 31.1565L167.807 40.5546H165.605L161.403 31.1427H163.839L166.806 37.8704L169.815 31.1427L172.03 31.1565Z" fill="white"/>
<path d="M173.141 31.9915C173.023 31.8872 172.929 31.7592 172.864 31.6159C172.8 31.4725 172.766 31.3172 172.766 31.16C172.766 31.0028 172.8 30.8474 172.864 30.7041C172.929 30.5608 173.023 30.4327 173.141 30.3285C173.409 30.0945 173.758 29.9733 174.113 29.9904C174.469 29.9765 174.817 30.0917 175.093 30.3147C175.212 30.4125 175.308 30.5359 175.372 30.6757C175.437 30.8155 175.469 30.9681 175.466 31.122C175.47 31.2842 175.438 31.4452 175.374 31.5941C175.31 31.7429 175.214 31.8762 175.093 31.9846C174.822 32.2197 174.472 32.343 174.113 32.3296C173.758 32.3466 173.409 32.2255 173.141 31.9915ZM173.03 33.337H175.204V40.5546H173.03V33.337Z" fill="white"/>
<path d="M185.064 30.5976V40.5546H182.994V39.7335C182.7 40.0564 182.337 40.309 181.932 40.4727C181.527 40.6363 181.091 40.7068 180.655 40.6788C179.988 40.6879 179.329 40.5314 178.737 40.2234C178.177 39.9231 177.713 39.4711 177.398 38.9193C177.077 38.3148 176.909 37.6407 176.909 36.9562C176.909 36.2716 177.077 35.5975 177.398 34.993C177.705 34.4424 178.162 33.9902 178.716 33.6889C179.308 33.3809 179.967 33.2244 180.634 33.2335C181.048 33.2108 181.462 33.2765 181.849 33.4265C182.236 33.5764 182.586 33.807 182.877 34.1029V30.5976H185.064ZM182.387 38.4156C182.738 38.0104 182.931 37.4922 182.931 36.9562C182.931 36.4201 182.738 35.9019 182.387 35.4968C182.016 35.1408 181.521 34.9421 181.007 34.9421C180.492 34.9421 179.998 35.1408 179.627 35.4968C179.276 35.9019 179.082 36.4201 179.082 36.9562C179.082 37.4922 179.276 38.0104 179.627 38.4156C179.998 38.7715 180.492 38.9702 181.007 38.9702C181.521 38.9702 182.016 38.7715 182.387 38.4156Z" fill="white"/>
<path d="M192.972 34.027C193.292 34.3328 193.54 34.7051 193.7 35.1178C193.86 35.5304 193.927 35.9731 193.896 36.4145V40.5546H191.861V39.6576C191.606 40.0137 191.26 40.295 190.86 40.4722C190.459 40.6494 190.019 40.716 189.584 40.665C189.07 40.6765 188.56 40.5801 188.086 40.3821C187.694 40.2207 187.356 39.9501 187.113 39.6024C186.897 39.2702 186.784 38.8811 186.789 38.4846C186.779 38.1756 186.845 37.869 186.983 37.592C187.12 37.315 187.324 37.0764 187.576 36.8975C188.307 36.4613 189.155 36.2613 190.005 36.3248H191.73C191.742 36.128 191.711 35.9308 191.636 35.748C191.562 35.5652 191.448 35.4015 191.302 35.2691C190.928 34.9946 190.468 34.8625 190.005 34.8965C189.607 34.897 189.211 34.9575 188.832 35.0759C188.477 35.1836 188.143 35.3516 187.845 35.5727L187.065 34.1029C187.515 33.8078 188.012 33.5908 188.535 33.4612C189.109 33.3092 189.701 33.2327 190.294 33.2335C191.253 33.168 192.204 33.4497 192.972 34.027ZM191.136 39.0159C191.419 38.8517 191.634 38.5925 191.744 38.2845V37.5461H190.239C189.349 37.5461 188.908 37.829 188.908 38.3949C188.903 38.5196 188.93 38.6433 188.987 38.7545C189.044 38.8656 189.128 38.9603 189.232 39.0297C189.499 39.2004 189.813 39.2825 190.129 39.2643C190.481 39.2732 190.829 39.1874 191.136 39.0159Z" fill="white"/>
<path d="M195.967 40.2993C195.838 40.1795 195.737 40.034 195.669 39.8722C195.602 39.7105 195.569 39.5362 195.573 39.3609C195.566 39.1862 195.598 39.0122 195.666 38.8511C195.734 38.6901 195.836 38.5461 195.967 38.4294C196.233 38.1983 196.573 38.071 196.926 38.071C197.278 38.071 197.619 38.1983 197.885 38.4294C198.015 38.5461 198.118 38.6901 198.186 38.8511C198.254 39.0122 198.285 39.1862 198.278 39.3609C198.283 39.5362 198.25 39.7105 198.182 39.8722C198.114 40.034 198.013 40.1795 197.885 40.2993C197.627 40.5481 197.284 40.6871 196.926 40.6871C196.568 40.6871 196.224 40.5481 195.967 40.2993Z" fill="white"/>
<path d="M196.174 50.0286C195.915 49.5803 195.57 49.1876 195.16 48.8729C194.749 48.5583 194.28 48.328 193.779 48.1952C193.279 48.0625 192.758 48.0299 192.245 48.0995C191.732 48.169 191.238 48.3392 190.791 48.6003C183.739 52.6852 176.073 53.1268 173.099 53.1268C170.125 53.1268 162.459 52.6852 155.407 48.6003C154.96 48.3411 154.466 48.1726 153.954 48.1043C153.441 48.036 152.921 48.0693 152.421 48.2022C151.922 48.3352 151.453 48.5652 151.043 48.8792C150.632 49.1931 150.287 49.5849 150.028 50.0321C149.769 50.4793 149.601 50.9731 149.532 51.4854C149.464 51.9978 149.497 52.5185 149.63 53.018C149.763 53.5174 149.993 53.9858 150.307 54.3964C150.621 54.8069 151.013 55.1517 151.46 55.4108C160.161 60.4549 169.49 61 173.099 61C176.708 61 186.037 60.4549 194.738 55.4108C195.642 54.8872 196.301 54.0261 196.57 53.0168C196.839 52.0076 196.697 50.9328 196.174 50.0286Z" fill="#02E4C0"/>
</svg>
